HIERARCHY
ROOT Hips
{
	OFFSET	0.00	0.00	0.00
	CHANNELS 6 Xposition Yposition Zposition Zrotation Xrotation Yrotation
	JOINT Spine
	{
		OFFSET	 0.00	0.01	 0.00
		CHANNELS 3 Zrotation Xrotation Yrotation
		JOINT Spine1
		{
			OFFSET	 0.00	 2.45913012437421	 0.00
			CHANNELS 3 Zrotation Xrotation Yrotation
            JOINT Neck
            {
                OFFSET	 0.00	 2.48462964506057	 0.00
                CHANNELS 3 Zrotation Xrotation Yrotation
                JOINT Head
                {
                    OFFSET	 0.00	 0.927524780924562	 0.00
                    CHANNELS 3 Zrotation Xrotation Yrotation
                    End Site 
                    {
                        OFFSET	 0.00	 1.14999962169752	 0.00
                    }
                }
            }
			JOINT LeftShoulder
			{
				OFFSET	 0.00	 2.48462964506057	 0.00
				CHANNELS 3 Zrotation Xrotation Yrotation
				JOINT LeftUpArm
				{
					OFFSET	 0.00	 1.24881979654096	 0.00
					CHANNELS 3 Zrotation Xrotation Yrotation
					JOINT LeftForeArm
					{
						OFFSET	 0.00	2.59758046908119	 0.00
						CHANNELS 3 Zrotation Xrotation Yrotation
						JOINT LeftHand
						{
							OFFSET	 0.00	2.45542024364365	 0.00
							CHANNELS 3 Zrotation Xrotation Yrotation
							JOINT LeftHandThumb 
							{
								OFFSET	 0.00	0.00	 0.00
								CHANNELS 3 Zrotation Xrotation Yrotation
								End Site
								{
									OFFSET	 0.00	0.00	1.00000003353624
								}
							}
							JOINT L_Wrist_End 
							{
								OFFSET	 0.00	0.99999967115358	 0.00
								CHANNELS 3 Zrotation Xrotation Yrotation
								End Site 
								{
									OFFSET	 0.00	 0.00	 0.00
								}
							}
						}
					}
				}
			}
			JOINT RightShoulder
			{
				OFFSET	 0.00	 2.48462964506057	 0.00
				CHANNELS 3 Zrotation Xrotation Yrotation
				JOINT RightUpArm
				{
					OFFSET	 0.00	 1.24881979654096	 0.00
					CHANNELS 3 Zrotation Xrotation Yrotation
					JOINT RightForeArm
					{
						OFFSET	 0.00	2.59758046908119	 0.00
						CHANNELS 3 Zrotation Xrotation Yrotation
						JOINT RightHand
						{
							OFFSET	 0.00	2.45542024364365	 0.00
							CHANNELS 3 Zrotation Xrotation Yrotation
							JOINT RightHandThumb 
							{
								OFFSET	 0.00	0.00	 0.00
								CHANNELS 3 Zrotation Xrotation Yrotation
								End Site
								{
									OFFSET	 0.00	0.00	1.00000003353624
								}
							}
							JOINT R_Wrist_End 
							{
								OFFSET	 0.00	0.99999967115358	 0.00
								CHANNELS 3 Zrotation Xrotation Yrotation
								End Site 
								{
									OFFSET	 0.00	 0.00	 0.00
								}
							}
						}
					}
				}
			}
		}
	}
	JOINT LeftUpLeg
	{
		OFFSET	 1.2719394002717	 0.00	 0.00
		CHANNELS 3 Zrotation Xrotation Yrotation
		JOINT LeftLowLeg
		{
			OFFSET	 0.00	-4.3429100912261	 0.00
			CHANNELS 3 Zrotation Xrotation Yrotation
			JOINT LeftFoot
			{
				OFFSET	 0.00	-4.48767017425826	 0.00
				CHANNELS 3 Zrotation Xrotation Yrotation
				JOINT LeftToeBase
                {
                    OFFSET	 0.00	0.00	 1.51507020887566
                    CHANNELS 3 Zrotation Xrotation Yrotation
                    End Site 
                    {
                        OFFSET	 0.00	0.00	 0.75000010571191
                    }
                }
			}
		}
	}
	JOINT RightUpLeg
	{
		OFFSET	 -1.2719393604653	 0.00	 0.00
		CHANNELS 3 Zrotation Xrotation Yrotation
		JOINT RightLowLeg
		{
			OFFSET	 0.00	-4.3429100912261	 0.00
			CHANNELS 3 Zrotation Xrotation Yrotation
			JOINT RightFoot
			{
				OFFSET	 0.00	-4.48767017425826	 0.00
				CHANNELS 3 Zrotation Xrotation Yrotation
				JOINT RightToeBase
                {
                    OFFSET	 0.00	0.00	 1.51507020887566
                    CHANNELS 3 Zrotation Xrotation Yrotation
                    End Site 
                    {
                        OFFSET	 0.00	0.00	 0.749999965609858
                    }
                }   
			}
		}
	}
}
MOTION 
Frames:	20 
Frame Time: 0.02 
  -0.7097579956054687 4.312049865722656 9.178060302734375 158.549 83.439 847.817 0.462348 12.8567 9.03727 -5.49373 6.53524 -3.19738 -18.6882 43.1731 767.05 -77.7272 -69.9103 630.536 -116.228 7.16435 7.32838 -17.957 30.1066 15.6416 0.0 113.724 0.0 15.5988 -5.85324 -8.55044 0.0 0.0 0.0 0.0 0.0 0.0 114.4914 10.5546 -377.065 11.174 44.3133 -32.8268 0.0 75.4446 0.0 -37.3077 22.9351 7.58852 0.0 0.0 0.0 0.0 0.0 0.0 14.6466 -24.965 7.94381 0.0 24.4437 0.0 -19.6589 14.654645 0.249729 0.0 -37.584297 0.0 6.6614 -6.72637 -1.86278 0.0 22.4958 0.0 11.594 2.0122004 2.08724 0.0 -41.2502 0.0 
  -0.7236090087890625 4.284440002441406 9.18156982421875 156.108 82.9233 850.899 0.431788 12.8583 8.68212 -5.20888 6.38489 -3.58155 -19.6369 42.9744 768.063 -78.3604 -69.6461 629.517 -115.9939 7.30913 7.98063 -18.2668 31.1177 12.0006 0.0 110.54 0.0 21.6096 -5.85942 -13.3868 0.0 0.0 0.0 0.0 0.0 0.0 114.6606 10.7375 -377.526 10.7397 44.3615 -34.6781 0.0 77.5162 0.0 -38.8036 24.2684 6.64757 0.0 0.0 0.0 0.0 0.0 0.0 14.5384 -25.1324 7.64142 0.0 24.0147 0.0 -18.7941 14.553694 -0.998971 0.0 -37.6372 0.0 6.71731 -6.79945 -2.01037 0.0 21.8876 0.0 11.8816 2.0923004 1.89807 0.0 -41.0373 0.0 
  -0.7401360321044922 4.251029968261719 9.18469970703125 153.563 82.3622 853.989 0.226524 12.8422 8.41236 -4.68907 6.15877 -3.93487 -20.6413 42.8518 769.029 -79.2694 -69.3448 628.283 -116.1863 7.45209 9.57905 -17.784 32.4953 7.65553 0.0 105.647 0.0 25.4789 -4.04462 -18.0768 0.0 0.0 0.0 0.0 0.0 0.0 114.6504 10.7845 -378.03 10.0944 44.7112 -35.8095 0.0 79.9353 0.0 -40.0639 25.4188 6.03252 0.0 0.0 0.0 0.0 0.0 0.0 14.4204 -25.291 7.44537 0.0 23.479 0.0 -18.6295 14.2903595 -1.88664 0.0 -37.4638 0.0 6.74698 -6.91791 -2.08048 0.0 21.2939 0.0 12.1005 2.1247997 1.58999 0.0 -41.016098 0.0 
  -0.758750991821289 4.212340087890625 9.186110229492188 151.57 81.8025 856.395 0.082055 12.8997 8.18522 -4.50134 5.93865 -4.22624 -20.9954 42.8099 769.402 -79.8006 -69.2842 627.815 -116.1694 7.69167 10.2239 -17.8124 33.692 5.51826 0.0 99.514 0.0 28.7742 -1.21841 -16.0827 0.0 0.0 0.0 0.0 0.0 0.0 114.662704 10.8229 -378.429 9.51847 45.1294 -36.1738 0.0 82.6249 0.0 -41.5364 26.1119 5.22514 0.0 0.0 0.0 0.0 0.0 0.0 14.3028 -25.3766 7.2799 0.0 22.7817 0.0 -18.9348 13.89024 -2.1708 0.0 -37.502197 0.0 6.74484 -7.01378 -2.19005 0.0 20.7265 0.0 12.4503 2.2096004 1.4708 0.0 -41.111 0.0 
  -0.7797309875488281 4.166310119628906 9.186160278320312 148.916 81.2075 859.339 -0.148971 12.7412 7.96464 -4.30633 5.95456 -4.52876 -21.8272 42.4781 770.45 -80.2473 -69.0892 626.989 -116.3552 7.85895 10.4754 -17.7997 34.8444 4.51052 0.0 92.7312 0.0 33.5495 0.0630162 -15.3091 0.0 0.0 0.0 0.0 0.0 0.0 114.5674 10.6236 -379.334 8.10782 46.2779 -34.711 0.0 85.1665 0.0 -42.4854 26.4075 4.33163 0.0 0.0 0.0 0.0 0.0 0.0 14.1098 -25.5417 7.18268 0.0 21.9593 0.0 -19.4729 13.72005 -2.40849 0.0 -36.9123 0.0 6.64182 -7.25308 -2.21331 0.0 20.2801 0.0 12.6463 2.1554003 1.26095 0.0 -40.844 0.0 
  -0.8025579833984375 4.11697998046875 9.18552001953125 147.027 80.7226 861.329 -0.4392 12.8511 7.87789 -4.38161 5.79474 -4.72149 -21.9023 42.4454 770.72 -80.7159 -69.2267 626.566 -116.5402 8.04684 10.6375 -17.7759 35.7454 4.32879 0.0 86.071 0.0 32.1862 -0.922568 -10.3367 0.0 0.0 0.0 0.0 0.0 0.0 114.492096 10.6714 -379.064 8.1507 46.7287 -33.9436 0.0 87.7549 0.0 -43.1463 26.3827 5.1854 0.0 0.0 0.0 0.0 0.0 0.0 13.908 -25.5474 7.04105 0.0 21.2597 0.0 -20.0437 13.47769 -2.50545 0.0 -36.744698 0.0 6.52291 -7.38922 -2.07139 0.0 19.9222 0.0 12.8321 2.0935001 1.01371 0.0 -40.7782 0.0 
  -0.8266190338134766 4.063299865722656 9.184840087890626 145.743 80.31 862.571 -0.726405 13.1257 7.86042 -4.6087 5.62568 -4.84408 -21.6767 42.5171 770.63 -81.1715 -69.4513 626.382 -117.004 8.11453 11.9817 -16.1231 36.888 3.49577 0.0 79.7685 0.0 30.3002 -2.27808 -5.23141 0.0 0.0 0.0 0.0 0.0 0.0 114.4924 10.5226 -378.994 7.62848 47.5903 -32.4375 0.0 89.63 0.0 -46.5813 26.5044 3.99918 0.0 0.0 0.0 0.0 0.0 0.0 13.713 -25.5792 6.7883 0.0 20.9909 0.0 -20.3081 12.89726 -2.43426 0.0 -36.3418 0.0 6.37908 -7.4109 -1.87821 0.0 19.5846 0.0 13.078 2.0647001 0.894773 0.0 -40.6022 0.0 
  -0.8516940307617188 4.007699890136719 9.184149780273437 144.798 80.0028 863.307 -1.15268 13.617 7.98706 -4.90807 5.43614 -4.868 -21.103 42.4971 770.272 -81.6202 -69.7825 626.358 -116.6376 8.42625 10.129 -17.3902 36.4958 8.10785 0.0 74.7986 0.0 27.6338 -3.69629 1.77044 0.0 0.0 0.0 0.0 0.0 0.0 114.4837 10.4005 -379.042 7.12843 48.2059 -29.9381 0.0 91.0407 0.0 -48.2317 25.5691 7.50758 0.0 0.0 0.0 0.0 0.0 0.0 13.5469 -25.613 6.82826 0.0 21.0762 0.0 -20.2148 12.209539 -2.26671 0.0 -36.117798 0.0 6.21101 -7.36299 -1.5404 0.0 19.3435 0.0 13.3005 2.0277004 0.767067 0.0 -40.4533 0.0 
  -0.8802500152587891 3.936159973144531 9.181920166015624 142.465 79.4556 865.67 -1.12549 13.6603 7.86503 -5.79132 5.50083 -4.98951 -20.4388 42.5593 769.827 -82.1977 -70.1919 626.328 -116.3075 8.65238 9.69288 -17.1397 35.7737 12.3639 0.0 71.9123 0.0 25.228 -5.5814 4.07897 0.0 0.0 0.0 0.0 0.0 0.0 114.6122 10.2017 -379.173 6.31073 49.0777 -26.8451 0.0 91.728 0.0 -49.6718 23.6416 9.45244 0.0 0.0 0.0 0.0 0.0 0.0 13.0524 -26.1722 6.4818 0.0 21.3902 0.0 -20.026 11.36 -1.80041 0.0 -35.6973 0.0 5.7866 -7.57649 -1.72608 0.0 19.0638 0.0 13.6945 1.9610004 1.0415 0.0 -40.3802 0.0 
  -0.9076519775390625 3.8690200805664063 9.181630249023437 140.665 79.0453 867.194 -1.39088 14.1101 7.98395 -6.57478 5.41217 -4.97035 -19.6238 42.3438 769.334 -82.6329 -70.5823 626.431 -115.6723 8.87568 9.3594 -17.2619 34.2846 16.5483 0.0 71.8616 0.0 21.3919 -8.55498 7.87668 0.0 0.0 0.0 0.0 0.0 0.0 114.7637 9.80733 -379.503 4.96723 50.3501 -22.9425 0.0 91.4668 0.0 -49.9903 21.6183 10.0383 0.0 0.0 0.0 0.0 0.0 0.0 12.6734 -26.5457 6.64447 0.0 21.787 0.0 -19.8106 10.61547 -1.265 0.0 -35.1158 0.0 5.42319 -7.74075 -1.52902 0.0 18.9245 0.0 13.9152 1.9403 1.04075 0.0 -40.2304 0.0 
  -0.9356520080566406 3.7971200561523437 9.180440063476562 138.471 78.4526 869.094 -1.6001 14.3994 8.08497 -7.41153 5.43943 -4.94504 -18.7092 41.9636 768.688 -83.2929 -70.9047 626.452 -115.1499 8.74032 9.55271 -16.8751 32.6691 19.7617 0.0 74.0647 0.0 18.6405 -11.568 10.822 0.0 0.0 0.0 0.0 0.0 0.0 114.907196 9.37216 -379.769 3.37811 51.8211 -19.193 0.0 90.3153 0.0 -50.6607 19.3748 11.9214 0.0 0.0 0.0 0.0 0.0 0.0 12.2538 -27.2012 6.77368 0.0 22.3378 0.0 -19.2739 9.707661 -0.521517 0.0 -34.284798 0.0 4.98606 -8.08045 -1.62658 0.0 18.7459 0.0 14.177 2.0059004 1.37725 0.0 -39.9877 0.0 
  -0.9653620147705078 3.7279598999023436 9.179819946289063 136.674 77.7264 870.456 -1.93844 14.6649 8.35484 -8.06378 5.33656 -4.8023 -17.6519 41.8695 767.77 -84.5826 -71.3176 626.003 -115.1557 8.46428 11.5703 -15.2932 31.1671 18.9793 0.0 77.7739 0.0 8.80143 -15.6695 11.1749 0.0 0.0 0.0 0.0 0.0 0.0 114.8144 9.21113 -379.872 2.52138 52.8965 -16.0283 0.0 88.8413 0.0 -48.8877 15.9876 10.3116 0.0 0.0 0.0 0.0 0.0 0.0 12.0597 -27.9129 7.21058 0.0 22.9528 0.0 -18.8892 8.83029 0.0303553 0.0 -34.0353 0.0 4.70622 -8.40719 -1.47367 0.0 18.3628 0.0 14.4372 2.1547003 1.56489 0.0 -39.6873 0.0 
  -0.9929789733886719 3.651419982910156 9.180139770507813 135.516 77.2163 871.268 -2.08074 15.3073 8.73807 -9.05504 5.09033 -4.48325 -15.9632 42.1617 766.069 -85.8832 -71.9403 625.556 -115.1754 8.36633 12.4951 -15.3574 29.4301 17.2356 0.0 81.9078 0.0 -8.50386 -18.681 7.74364 0.0 0.0 0.0 0.0 0.0 0.0 114.757095 9.48206 -379.079 3.52204 53.0526 -15.0103 0.0 86.9644 0.0 -47.4118 13.3776 8.88196 0.0 0.0 0.0 0.0 0.0 0.0 11.7189 -28.3885 7.31181 0.0 23.5386 0.0 -18.5183 7.99825 0.592463 0.0 -33.6428 0.0 4.30351 -8.34655 -1.62929 0.0 17.7101 0.0 14.8146 2.4403 2.00782 0.0 -39.6936 0.0 
  -1.021449966430664 3.579949951171875 9.181220092773437 134.352 76.4799 871.926 -2.20207 15.7903 9.35428 -10.2219 4.78035 -3.9255 -13.5211 42.4562 763.613 -86.0681 -72.7452 626.067 -115.1215 8.41882 12.5933 -16.5467 27.8828 14.604 0.0 85.7116 0.0 -29.2865 -18.759 2.74646 0.0 0.0 0.0 0.0 0.0 0.0 114.7569 10.0205 -378.214 5.17293 52.7152 -14.5684 0.0 84.5029 0.0 -45.0879 11.6477 8.13839 0.0 0.0 0.0 0.0 0.0 0.0 11.6508 -28.9442 7.5158 0.0 23.9906 0.0 -18.4063 7.21179 0.859409 0.0 -33.5011 0.0 4.06222 -8.41652 -1.54248 0.0 16.8816 0.0 15.1985 2.8262997 2.34954 0.0 -39.772 0.0 
  -1.046050033569336 3.5120599365234373 9.185770263671875 133.488 75.8051 872.222 -2.46407 16.5416 10.1748 -11.2124 4.24786 -3.23812 -11.1016 42.7737 761.055 -86.5031 -73.4671 626.163 -115.3245 8.59769 13.0882 -17.9549 26.671 10.7932 0.0 89.0344 0.0 -45.1074 -15.5685 -0.553379 0.0 0.0 0.0 0.0 0.0 0.0 114.7808 10.3755 -377.851 6.47746 52.4862 -13.8402 0.0 81.3963 0.0 -42.8542 9.80008 8.02037 0.0 0.0 0.0 0.0 0.0 0.0 11.6479 -29.3911 7.68057 0.0 24.356 0.0 -18.2862 6.55443 1.1623 0.0 -33.2778 0.0 3.88814 -8.3273 -1.21935 0.0 15.821 0.0 15.7321 3.2960997 2.52025 0.0 -39.977303 0.0 
  -1.0693599700927734 3.4513800048828127 9.191290283203125 132.472 74.9979 872.741 -2.83645 17.1077 11.0536 -11.9092 3.83299 -2.52687 -9.00181 42.903 758.717 -87.4086 -73.964 625.528 -115.5029 8.78134 13.9442 -19.5721 26.0071 6.18708 0.0 91.5872 0.0 -53.902 -9.87493 -5.51805 0.0 0.0 0.0 0.0 0.0 0.0 114.893295 10.5128 -378.413 6.47481 52.759 -11.9652 0.0 77.9548 0.0 -40.8259 5.87529 6.92436 0.0 0.0 0.0 0.0 0.0 0.0 11.8167 -29.9966 8.4547 0.0 24.6829 0.0 -18.0616 6.1390104 1.03917 0.0 -33.0328 0.0 3.78221 -8.31785 -0.662864 0.0 14.6506 0.0 16.7779 3.4779997 2.65371 0.0 -40.2355 0.0 
  -1.090469970703125 3.396940002441406 9.19801025390625 131.447 74.1212 873.469 -3.30416 17.5237 11.8638 -12.2405 3.55286 -1.91594 -7.56246 42.8502 757.006 -88.6986 -74.1752 624.205 -115.7126 8.77303 14.5866 -21.5289 25.8933 1.60025 0.0 92.8618 0.0 -56.6599 -2.41596 -10.933 0.0 0.0 0.0 0.0 0.0 0.0 114.9672 10.6698 -379.301 6.03089 53.3074 -9.67718 0.0 74.2928 0.0 -37.5899 -0.367104 9.36047 0.0 0.0 0.0 0.0 0.0 0.0 12.0216 -30.7098 9.54335 0.0 24.9318 0.0 -17.6085 5.97694 0.651127 0.0 -32.8931 0.0 3.70932 -8.29109 -0.123947 0.0 13.3353 0.0 17.2154 3.5634003 2.41735 0.0 -41.355698 0.0 
  -1.1099500274658203 3.35093994140625 9.204869995117187 130.733 73.1632 874.112 -3.85762 17.8055 12.5897 -12.0764 3.28235 -1.43354 -6.55506 42.9398 755.585 -90.2384 -74.189 622.685 -115.9818 8.64876 14.8655 -23.8686 26.2191 -2.82828 0.0 92.7878 0.0 -56.2765 5.23491 -15.628 0.0 0.0 0.0 0.0 0.0 0.0 114.8828 11.048 -380.17 5.90988 53.8148 -7.73548 0.0 70.5475 0.0 -32.9724 -8.21216 16.5042 0.0 0.0 0.0 0.0 0.0 0.0 12.2643 -31.4727 10.5636 0.0 25.0181 0.0 -17.1041 5.89464 0.161008 0.0 -32.6633 0.0 3.77997 -8.30839 0.548669 0.0 12.144 0.0 17.2281 3.4151 1.51806 0.0 -40.855 0.0 
  -1.124280014038086 3.306730041503906 9.210709838867187 130.41 72.23 874.812 -4.02407 18.111 12.9271 -12.0078 3.08636 -1.17657 -6.01119 43.0892 754.675 -91.8765 -74.0687 620.862 -116.3771 8.36204 15.5658 -25.7752 27.2566 -7.13144 0.0 90.9899 0.0 -50.1136 15.1316 -29.6013 0.0 0.0 0.0 0.0 0.0 0.0 114.6726 11.8141 -380.244 7.65295 53.948 -7.36247 0.0 66.8859 0.0 -26.6637 -13.859 25.7611 0.0 0.0 0.0 0.0 0.0 0.0 12.2406 -32.347 10.7328 0.0 25.0621 0.0 -16.6906 5.84229 -0.00608363 0.0 -32.917297 0.0 3.8669 -8.24995 1.16304 0.0 11.1826 0.0 17.3347 3.2788 -0.451335 0.0 -40.9623 0.0 
  -1.1386299896240235 3.2745401000976564 9.216119995117188 130.554 71.6725 874.968 -4.5923 18.753 13.5154 -11.5042 2.8135 -0.849947 -5.58409 43.2167 753.858 -93.7074 -73.8664 618.816 -116.6232 8.30487 14.7965 -28.5679 27.7501 -8.99431 0.0 89.0956 0.0 -37.6082 19.0203 -40.3772 0.0 0.0 0.0 0.0 0.0 0.0 114.444595 12.5406 -380.068 10.031 53.6457 -6.85943 0.0 64.1018 0.0 -17.2336 -19.8291 34.5716 0.0 0.0 0.0 0.0 0.0 0.0 12.2831 -32.7895 10.9192 0.0 25.0624 0.0 -16.3847 5.83654 -0.27092 0.0 -33.0677 0.0 3.99489 -7.9237 2.09605 0.0 10.8595 0.0 18.3333 2.8838997 -2.92901 0.0 -41.198997 0.0 
